# xmcd
#
# Track frame offsets:
# 150
# 28793
# 48239
# 71501
# 83866
# 105099
# 125712
# 142163
# 145803
# 164460
#
# Disc length: 2380 seconds
#
# Revision: 0
# Processed by: cddbd v1.5.1PL0 Copyright (c) Steve Scherf et al.
# Submitted via: Audion 3.0.2 (http://www.panic.com/audion/)
#
DISCID=8a094a0a
DTITLE=2004 - Various
DYEAR=1900
DGENRE=
TTITLE0=In a Big Country
TTITLE1=Breakfast at Tiffany's
TTITLE2=Trapped
TTITLE3=Ever Fallen in love?
TTITLE4=Praying for Time
TTITLE5=You've Got A Friend
TTITLE6=Echo Beach
TTITLE7=Sit on my Face
TTITLE8=Games without Fronties
TTITLE9=This Town ain't Big Enough
EXTD=
EXTT0=
EXTT1=
EXTT2=
EXTT3=
EXTT4=
EXTT5=
EXTT6=
EXTT7=
EXTT8=
EXTT9=
PLAYORDER=
